<svg width="24" height="24" viewBox="0 0 24 24" fill="none" xmlns="http://www.w3.org/2000/svg">
<path d="M11.2316 1.32451L1.22614 11.1763C1.12393 11.2772 1.0518 11.4101 1.01931 11.5574C0.986816 11.7048 0.995484 11.8595 1.04417 12.0013C1.09286 12.143 1.17928 12.265 1.29197 12.3512C1.40467 12.4374 1.53834 12.4836 1.6753 12.4838H3.11177C3.2791 12.484 3.43951 12.5578 3.55777 12.6889C3.67602 12.8199 3.74245 12.9976 3.74245 13.1829V21.6483C3.74245 22.0067 3.87097 22.3504 4.09976 22.6038C4.32854 22.8573 4.63887 22.9998 4.96252 23H8.3736C8.6965 22.9985 9.00574 22.8555 9.2336 22.6022C9.46147 22.3488 9.5894 22.0059 9.5894 21.6483V14.7521C9.5894 14.6178 9.61337 14.4848 9.65993 14.3608C9.7065 14.2368 9.77474 14.1242 9.86073 14.0295C9.94673 13.9348 10.0488 13.8599 10.161 13.809C10.2733 13.7581 10.3935 13.7323 10.5148 13.733H13.4874C13.7315 13.733 13.9656 13.8404 14.1382 14.0315C14.3108 14.2226 14.4078 14.4818 14.4078 14.7521V21.6483C14.4078 22.0068 14.5364 22.3506 14.7653 22.6041C14.9943 22.8576 15.3048 23 15.6285 23H19.0254C19.3492 23 19.6597 22.8576 19.8886 22.6041C20.1175 22.3506 20.2462 22.0068 20.2462 21.6483V13.1364C20.2461 13.0507 20.2613 12.9658 20.2908 12.8865C20.3204 12.8073 20.3638 12.7353 20.4186 12.6747C20.4733 12.6141 20.5383 12.566 20.6099 12.5333C20.6814 12.5005 20.7581 12.4837 20.8356 12.4838H22.3247C22.4617 12.4836 22.5953 12.4374 22.708 12.3512C22.8207 12.265 22.9071 12.143 22.9558 12.0013C23.0045 11.8595 23.0132 11.7048 22.9807 11.5574C22.9482 11.4101 22.8761 11.2772 22.7739 11.1763L12.7684 1.32451C12.557 1.11551 12.2834 1 12 1C11.7166 1 11.443 1.11551 11.2316 1.32451V1.32451Z" fill="#003264"/>
</svg>
