<svg width="117" height="42" viewBox="0 0 117 42" fill="none" xmlns="http://www.w3.org/2000/svg">
<path d="M44.0817 26.4894C43.8145 27.4491 43.3947 28.3321 42.8604 29.1382C42.2879 29.9827 41.6009 30.7121 40.7994 31.2879C39.9216 31.9405 38.9675 32.4395 37.937 32.7466C36.792 33.1305 35.5707 33.3225 34.3875 33.2841C32.9372 33.2841 31.5251 33.0153 30.1511 32.5163C28.8153 32.0173 27.6322 31.2495 26.6399 30.2514C25.6094 29.215 24.7697 27.9866 24.2354 26.6046C23.6247 25.0691 23.3194 23.4184 23.3194 21.7294C23.2812 20.1171 23.5866 18.5432 24.1972 17.0461C24.7316 15.7025 25.533 14.5125 26.5254 13.476C27.4795 12.5163 28.6245 11.7102 29.884 11.2111C31.1434 10.6737 32.4792 10.405 33.8532 10.405C37.1737 10.405 39.769 11.4031 41.6391 13.3992C43.5092 15.3954 44.4252 18.1209 44.4252 21.5758C44.4252 21.9981 44.4252 22.382 44.387 22.7274C44.3489 23.0729 44.3489 23.3033 44.3489 23.38H28.968C29.0061 24.071 29.1588 24.7236 29.4641 25.3378C30.0366 26.5278 31.0671 27.4491 32.3266 27.9098C32.9754 28.1785 33.6624 28.2937 34.3875 28.2937C35.7615 28.2937 36.8302 27.9866 37.5935 27.3724C38.3568 26.7582 38.9293 25.952 39.2728 24.9923L44.0817 26.4894ZM38.6621 19.4261C38.624 18.8887 38.5095 18.3896 38.3186 17.8906C38.1278 17.3915 37.8225 16.9309 37.4408 16.547C37.021 16.1248 36.5248 15.7793 35.9524 15.5489C35.2654 15.2802 34.5784 15.1651 33.8532 15.1651C32.5556 15.1267 31.2961 15.6257 30.3801 16.5854C29.9985 16.9693 29.655 17.4299 29.4641 17.929C29.2351 18.3896 29.1206 18.8887 29.0825 19.4261H38.6621Z" fill="#003264"/>
<path d="M54.3484 11.1343H58.6611V16.3167H54.3484V25.3378C54.3484 26.2591 54.5774 26.9117 54.959 27.2956C55.4933 27.7178 56.1803 27.9098 56.8673 27.833C57.2108 27.833 57.5543 27.833 57.8978 27.7946C58.165 27.7946 58.394 27.7562 58.623 27.6795V32.4395C58.2413 32.5931 57.8215 32.7082 57.4398 32.785C56.7528 32.9002 56.0658 32.977 55.3788 32.9386C53.2797 32.9386 51.6386 32.3628 50.4173 31.1727C49.196 30.0211 48.5853 28.3704 48.5853 26.2591V16.2783H44.7305V11.1343H45.7992C46.9442 11.1343 47.7838 10.7889 48.3181 10.1363C48.8525 9.44529 49.1578 8.60076 49.1196 7.71784V4.68521H54.3484V11.1343Z" fill="#003264"/>
<path d="M71.2941 10.4434C72.8207 10.4434 74.3474 10.7121 75.7595 11.3263C77.0953 11.8637 78.3166 12.6699 79.3471 13.7063C80.3776 14.7428 81.1791 15.9712 81.6752 17.3148C82.2477 18.7735 82.553 20.3474 82.5149 21.9213C82.5149 23.4952 82.2477 25.0307 81.6371 26.4894C81.1027 27.833 80.3013 29.0614 79.3089 30.0979C78.2785 31.1344 77.0953 31.9405 75.7595 32.4779C72.8971 33.6296 69.6911 33.6296 66.8287 32.4779C65.4929 31.9405 64.2715 31.1344 63.2411 30.0979C62.2487 29.0614 61.4473 27.833 60.8748 26.4894C60.3023 25.0307 59.9969 23.4952 60.0351 21.9213C60.0351 20.3474 60.3023 18.7735 60.8748 17.3148C61.9434 14.5892 64.0807 12.4395 66.7905 11.3647C68.279 10.7505 69.7674 10.4434 71.2941 10.4434ZM71.2941 27.9866C71.9811 27.9866 72.7062 27.8714 73.355 27.6027C74.0039 27.334 74.6145 26.9501 75.1107 26.4511C75.645 25.9136 76.0267 25.261 76.2938 24.5317C76.5992 23.6871 76.7518 22.7658 76.7518 21.8445C76.79 20.9232 76.6373 20.0019 76.2938 19.1574C76.0267 18.428 75.6068 17.7754 75.1107 17.238C74.6145 16.739 74.042 16.3551 73.355 16.0864C72.0574 15.5489 70.5689 15.5489 69.2713 16.0864C68.6225 16.3551 68.0118 16.739 67.5156 17.238C66.9813 17.7754 66.5997 18.428 66.3325 19.1574C66.0272 20.0019 65.8363 20.9232 65.8745 21.8445C65.8363 22.7658 66.0272 23.6871 66.3325 24.5317C66.5997 25.261 67.0195 25.9136 67.5156 26.4511C68.0118 26.9501 68.5843 27.334 69.2713 27.6027C69.9201 27.8714 70.6071 28.0249 71.2941 27.9866Z" fill="#003264"/>
<path d="M85.3773 32.6315V0.961609H91.1786V32.6315H85.3773Z" fill="#003264"/>
<path d="M105.185 10.4434C106.712 10.4434 108.239 10.7121 109.651 11.3263C112.361 12.4011 114.498 14.5892 115.567 17.3148C116.139 18.7735 116.444 20.3474 116.406 21.9213C116.406 23.4952 116.139 25.0307 115.567 26.4894C115.032 27.833 114.231 29.0614 113.2 30.0979C112.17 31.1344 110.949 31.9021 109.613 32.4395C106.75 33.5912 103.582 33.5912 100.72 32.4395C99.3842 31.9021 98.1629 31.096 97.1706 30.0595C96.1401 29.023 95.3768 27.7946 94.8043 26.4511C94.2318 24.9923 93.9265 23.4568 93.9646 21.8829C93.9646 20.309 94.2318 18.7351 94.8043 17.2764C95.3386 15.9328 96.1401 14.7044 97.1706 13.6679C98.2011 12.6699 99.4224 11.8637 100.72 11.3263C102.17 10.7505 103.697 10.4434 105.185 10.4434ZM105.185 27.9866C105.872 27.9866 106.598 27.8714 107.246 27.6027C107.895 27.334 108.506 26.9501 109.002 26.4511C109.536 25.9136 109.918 25.261 110.185 24.5317C110.491 23.6871 110.681 22.7658 110.643 21.8445C110.681 20.9232 110.491 20.0019 110.185 19.1574C109.918 18.428 109.498 17.7754 109.002 17.238C108.506 16.739 107.933 16.3551 107.246 16.0864C105.949 15.5489 104.46 15.5489 103.163 16.0864C102.514 16.3551 101.903 16.739 101.407 17.238C100.873 17.7754 100.491 18.428 100.224 19.1574C99.9185 20.0019 99.7277 20.9232 99.7659 21.8445C99.7277 22.7658 99.9185 23.6871 100.224 24.5317C100.491 25.261 100.911 25.9136 101.407 26.4511C101.903 26.9501 102.476 27.334 103.163 27.6027C103.811 27.8714 104.498 28.0249 105.185 27.9866Z" fill="#003264"/>
<path d="M21.4111 17.3915C20.9913 16.0864 20.3425 14.8963 19.4647 13.8599C18.625 12.8618 17.5564 12.0557 16.335 11.5182C15.0374 10.9424 13.5871 10.6353 12.175 10.6737C10.7246 10.6353 9.3125 10.9424 8.05302 11.595C7.06071 12.094 6.22106 12.8234 5.6104 13.7831V11.1727H0V41.0384H5.80123V30.5585C6.41189 31.3647 7.25154 32.0173 8.16752 32.4011C9.35067 32.9386 10.6865 33.2073 11.9841 33.1689C13.3963 33.1689 14.8084 32.9002 16.106 32.3244C17.3274 31.7869 18.4342 30.9808 19.312 29.9443C20.228 28.9079 20.915 27.6795 21.373 26.3743C21.8691 24.9155 22.0981 23.38 22.0981 21.8445C22.0981 20.3474 21.8691 18.8503 21.4111 17.3915ZM12.4039 16.3935C12.5948 16.0864 12.9001 15.8944 13.2436 15.856C13.7398 15.7793 14.1977 16.048 14.4267 16.4702C14.9229 17.2764 14.8847 18.3129 14.3504 19.0806C14.1596 19.4261 13.8161 19.6564 13.4344 19.6948C12.9383 19.7716 12.4421 19.4645 12.2131 19.0038C12.0986 18.7735 12.0223 18.5048 11.946 18.2745C11.8315 17.6219 11.9841 16.9309 12.4039 16.3935ZM8.05302 17.3915C8.28202 16.8541 8.93084 16.5854 9.46517 16.8541C10.1903 17.1612 10.7246 17.8522 10.8773 18.62C10.9918 19.0038 10.9536 19.4261 10.7628 19.81C10.5338 20.3474 9.92316 20.6161 9.35067 20.3858H9.3125C8.62551 20.1171 8.12936 19.5413 7.97669 18.8119C7.82403 18.3512 7.86219 17.8522 8.05302 17.3915ZM8.66368 23.0345C8.39652 23.4184 7.93853 23.6104 7.48053 23.4568C6.60272 23.2265 5.95389 22.4203 5.87756 21.499C5.8394 20.9616 6.25922 20.4626 6.79355 20.4242C6.86988 20.4242 6.94621 20.4242 7.02254 20.4242C7.90036 20.5777 8.58735 21.3071 8.77818 22.19C8.85451 22.4587 8.81634 22.7658 8.66368 23.0345ZM16.2587 26.0672C15.7626 26.0672 15.2664 26.0672 14.7702 26.0288C14.0833 25.9136 13.3581 25.9904 12.6711 26.1823C12.2131 26.3359 11.7551 26.5662 11.2971 26.7582C10.9155 26.9117 10.572 27.142 10.2285 27.2956C9.88499 27.5259 9.427 27.4107 9.198 27.1036C9.15984 27.0269 9.12167 26.9501 9.08351 26.8349C8.74001 25.9136 8.74001 24.9155 9.04534 23.9942C9.35067 22.9962 9.92316 22.1516 10.7246 21.4606C11.3735 20.8081 12.3658 20.6161 13.2054 20.9616C14.5794 21.3839 15.6862 22.3436 16.3732 23.572C16.5259 23.8791 16.6404 24.2246 16.7549 24.5701C16.793 24.8772 16.793 25.1459 16.8312 25.3762C16.8694 25.7217 16.6404 26.0288 16.2969 26.0672C16.2969 26.0672 16.2969 26.0672 16.2587 26.0672ZM16.8694 21.5374C16.4114 21.8445 15.8007 21.691 15.4954 21.2303C15.4572 21.1919 15.4572 21.1152 15.4191 21.0768C15.0756 20.1555 15.3809 19.119 16.1824 18.5432C16.6404 18.1977 17.251 18.2745 17.5945 18.7351C17.709 18.8503 17.7472 19.0038 17.7854 19.1574C17.7854 19.1958 17.7854 19.2342 17.8235 19.3109C17.9762 20.1939 17.5945 21.0768 16.8694 21.5374Z" fill="#003264"/>
</svg>
