<svg width="24" height="24" viewBox="0 0 24 24" fill="none" xmlns="http://www.w3.org/2000/svg">
<path fill-rule="evenodd" clip-rule="evenodd" d="M7.55385 1H16.4461C18.1839 1.00137 19.8501 1.69263 21.0789 2.922C22.3077 4.15137 22.9986 5.81835 23 7.55694V16.4431C22.9986 18.1816 22.3077 19.8486 21.0789 21.078C19.8501 22.3074 18.1839 22.9986 16.4461 23H7.55385C5.81608 22.9986 4.14988 22.3074 2.92109 21.078C1.6923 19.8486 1.00137 18.1816 1 16.4431V7.55694C1.00137 5.81835 1.6923 4.15137 2.92109 2.922C4.14988 1.69263 5.81608 1.00137 7.55385 1ZM16.9744 7.48782C17.1987 7.63773 17.4623 7.71775 17.732 7.71775H17.7009C17.8826 7.7219 18.0633 7.68967 18.2323 7.62297C18.4014 7.55627 18.5554 7.45644 18.6853 7.32934C18.8153 7.20224 18.9185 7.05043 18.989 6.88285C19.0595 6.71526 19.0957 6.53527 19.0957 6.35346C19.0957 6.08362 19.0157 5.81985 18.8659 5.59549C18.716 5.37113 18.5031 5.19626 18.2539 5.093C18.0047 4.98974 17.7305 4.96273 17.466 5.01537C17.2015 5.06801 16.9585 5.19795 16.7678 5.38875C16.5771 5.57955 16.4472 5.82264 16.3946 6.08729C16.342 6.35194 16.369 6.62626 16.4722 6.87555C16.5754 7.12484 16.7502 7.33791 16.9744 7.48782ZM12 16.5519C11.11 16.5519 10.24 16.288 9.49996 15.7935C8.75994 15.299 8.18316 14.5962 7.84256 13.7739C7.50197 12.9517 7.41286 12.0469 7.58649 11.174C7.76013 10.3011 8.18871 9.49923 8.81805 8.86989C9.44738 8.24055 10.2492 7.81198 11.1221 7.63834C11.995 7.46471 12.8998 7.55382 13.7221 7.89442C14.5444 8.23501 15.2472 8.81178 15.7416 9.5518C16.2361 10.2918 16.5 11.1619 16.5 12.0519C16.5 13.2454 16.0259 14.3899 15.182 15.2339C14.3381 16.0778 13.1935 16.5519 12 16.5519Z" fill="#003264"/>
</svg>
