<svg width="149" height="29" viewBox="0 0 149 29" fill="none" xmlns="http://www.w3.org/2000/svg">
<path d="M148.333 0.44043H134.457V28.1884H148.333V0.44043Z" fill="#13B57A"/>
<path d="M0.333008 0.467773H28.081V28.2199H0.333008V0.467773ZM30.3964 0.467773H58.1444V28.2199H30.3964V0.467773ZM60.4557 0.467773H88.2243V28.2199H60.4722L60.4557 0.467773ZM90.5191 0.467773H118.267V28.2199H90.5191V0.467773ZM120.578 0.467773H134.454V28.2199H120.578V0.467773Z" fill="#13B57A"/>
<path d="M14.1931 19.1687L18.4126 18.0994L20.1728 23.5322L14.1931 19.1687ZM23.903 12.1443H16.4756L14.1931 5.15283L11.9064 12.1443H4.479L10.4917 16.4791L8.20917 23.4706L14.2219 19.1358L17.9232 16.4749L23.903 12.1443ZM44.2524 19.1687L48.4719 18.0994L50.2363 23.5322L44.2524 19.1687ZM53.9664 12.1443H46.5349L44.2524 5.15283L41.9698 12.1443H34.5424L40.5551 16.4791L38.2685 23.4706L44.2811 19.1358L47.9825 16.4749L53.9664 12.1443ZM74.3158 19.1687L78.5353 18.0994L80.2997 23.5322L74.3158 19.1687ZM84.0257 12.1443H76.5983L74.3158 5.15283L72.0333 12.1443H64.6141L70.6267 16.4791L68.3442 23.4706L74.3569 19.1358L78.0583 16.4749L84.0257 12.1443ZM104.379 19.1687L108.599 18.0994L110.359 23.5322L104.379 19.1687ZM114.089 12.1443H106.662L104.379 5.15283L102.093 12.1443H94.6775L100.69 16.4791L98.4076 23.4706L104.42 19.1358L108.122 16.4749L114.089 12.1443ZM134.438 19.1687L138.658 18.0994L140.422 23.5322L134.438 19.1687ZM144.153 12.1443H136.75L134.467 5.15283L132.185 12.1443H124.741L130.754 16.4791L128.467 23.4706L134.48 19.1358L138.181 16.4749L144.153 12.1443Z" fill="white"/>
</svg>
