<?xml version="1.0" encoding="UTF-8"?> <svg xmlns="http://www.w3.org/2000/svg" viewBox="0 0 128.24 131.81"><defs><style>.cls-1{fill:#004b5d;}</style></defs><g id="Ebene_2" data-name="Ebene 2"><g id="Ebene_2-2" data-name="Ebene 2"><path class="cls-1" d="M60.07,24.15A34.33,34.33,0,0,1,76.49,5.57a34.35,34.35,0,0,1,27.6-1.7,34.27,34.27,0,0,1-9.76,66.36L65.61,72a5.49,5.49,0,0,1-5.82-5.14L58,38.13A33.93,33.93,0,0,1,60.07,24.15Zm2.6,42.16a3,3,0,0,0,3.12,2.77l28.36-1.75A31.37,31.37,0,1,0,60.92,38Z"></path><path class="cls-1" d="M65.26,73.76A7.25,7.25,0,0,1,58,67L56.27,38.24a35.82,35.82,0,0,1,2.15-14.7l1.65.61-1.65-.61A36,36,0,1,1,94.44,72L65.71,73.75Zm27-67.35H91.8A29.66,29.66,0,0,0,62.66,37.85l1.75,28.36a1.19,1.19,0,0,0,.41.82,1.15,1.15,0,0,0,.86.3L94,65.58a29.64,29.64,0,0,0,27.61-32.81A29.82,29.82,0,0,0,92.24,6.41Z"></path><path class="cls-1" d="M78.06,41.83A3.93,3.93,0,1,1,82,37.9,3.93,3.93,0,0,1,78.06,41.83Z"></path><path class="cls-1" d="M92.22,41.83a3.93,3.93,0,1,1,3.93-3.93A3.94,3.94,0,0,1,92.22,41.83Z"></path><path class="cls-1" d="M106.39,41.83a3.93,3.93,0,1,1,3.93-3.93A3.93,3.93,0,0,1,106.39,41.83Z"></path><path class="cls-1" d="M81.08,131.81h-.17A81.41,81.41,0,0,1,.17,53.42L.08,52.36C0,51.74,0,51.13,0,50.53v-.12a21.24,21.24,0,0,1,.18-2.74A22.62,22.62,0,0,1,22.63,27.81a21.57,21.57,0,0,1,4.28.42,21.12,21.12,0,0,1,3.3.89l1.57.55,7.13,31.95a5.86,5.86,0,0,1-3,6.44l-5.85,3.08a55.68,55.68,0,0,0,30.77,30.74L63.92,96a5.84,5.84,0,0,1,6.47-3l32,7.32.54,1.57a20.62,20.62,0,0,1,.82,3.11,22.71,22.71,0,0,1,.37,5.22C103.53,122.19,93.23,131.81,81.08,131.81ZM6.18,53.56A75.13,75.13,0,0,0,81,125.81h.13c9,0,16.61-7.06,17-15.8a16.2,16.2,0,0,0-.27-3.82v0c0-.23-.08-.46-.13-.68l-28.5-6.53-3.06,5.85a5.83,5.83,0,0,1-7.35,2.71A61.68,61.68,0,0,1,24.47,73.24a5.84,5.84,0,0,1,2.69-7.34L33,62.81l-6.36-28.5c-.3-.07-.6-.14-.89-.19a15.72,15.72,0,0,0-3.15-.31A16.61,16.61,0,0,0,6.14,48.42a13.8,13.8,0,0,0-.14,2v.12C6,51.12,6.18,53.56,6.18,53.56Z"></path></g></g></svg> 