<?xml version="1.0" encoding="UTF-8"?> <svg xmlns="http://www.w3.org/2000/svg" viewBox="0 0 100 100"><defs><style>.cls-1{fill:#004b5d;}</style></defs><g id="Ebene_2" data-name="Ebene 2"><g id="Ebene_2-2" data-name="Ebene 2"><path class="cls-1" d="M83,0H17A17.05,17.05,0,0,0,0,17V83a17.05,17.05,0,0,0,17,17H83a17.05,17.05,0,0,0,17-17V17A17.05,17.05,0,0,0,83,0ZM93.73,85.4,61.92,53.54,94,21.46V83A11.27,11.27,0,0,1,93.73,85.4ZM17,6H83a11,11,0,0,1,10.44,7.54L55.89,51.08a8,8,0,0,1-.89.78,8.33,8.33,0,0,1-10.14-.1c-.28-.23-.53-.46-.76-.68L6.57,13.55A11,11,0,0,1,17,6ZM6.27,85.38A11.08,11.08,0,0,1,6,83V21.46L38.09,53.55ZM17,94A10.94,10.94,0,0,1,9.3,90.83L42.64,57.49a14.28,14.28,0,0,0,14.73,0L90.69,90.85A11,11,0,0,1,83,94Z"></path></g></g></svg> 