<svg xmlns="http://www.w3.org/2000/svg" viewBox="0 0 1548.61 188.6"><defs><style>.cls-1{fill:#003264;}.cls-2{fill:#ffb139;}.cls-3{fill:#0f9fe5;}.cls-4{font-size:97.89px;fill:#fff;font-family:OpenSans-SemiBold, Open Sans;font-weight:600;}</style></defs><g id="Layer_2" data-name="Layer 2"><g id="Layer_1-2" data-name="Layer 1"><path class="cls-1" d="M214.52,23.8H346.87q17,0,29.22,3.27T396,36.87a38.88,38.88,0,0,1,11.39,16.35,64.68,64.68,0,0,1,3.67,22.68,58,58,0,0,1-3.57,20.71,39.86,39.86,0,0,1-11.29,16.14q-7.72,6.75-19.81,10.5T347.26,127H262.07v35.66H214.52Zm47.55,65.57h82q10.7,0,15.06-3t4.36-10.7q0-8.13-4.36-11.1t-15.06-3h-82Z"/><path class="cls-1" d="M565.38,117.71a4.61,4.61,0,0,0-1.68-3.77q-1.68-1.38-6.24-2a114.52,114.52,0,0,0-12.38-.69q-7.83-.1-19.91-.1H477q-21.21,0-33.88-4.16t-19.62-10.4c-4.62-4.17-7.66-8.65-9.11-13.48a46.57,46.57,0,0,1-2.18-13.36,60.55,60.55,0,0,1,2.18-15.66,31.78,31.78,0,0,1,9.11-14.76q6.95-6.63,19.62-11T477,24h74.89q16.23,0,26.74,3.27t16.94,9.21a37.81,37.81,0,0,1,9.71,14.46,91.12,91.12,0,0,1,4.85,19H562.81a21.67,21.67,0,0,0-2.48-4,10,10,0,0,0-3.56-2.68,20.58,20.58,0,0,0-6-1.58,76.82,76.82,0,0,0-9.7-.5H500q-12.28,0-20,.2a103.15,103.15,0,0,0-12.28.89c-3,.47-5.13,1.23-6.24,2.28A5.68,5.68,0,0,0,459.79,69a4.58,4.58,0,0,0,1.69,3.76c1.11.93,3.2,1.59,6.24,2a110.29,110.29,0,0,0,12.28.7q7.72.11,20,.1h48.14q21,0,33.78,4.16t19.71,10.4q6.93,6.24,9.11,13.47a46.37,46.37,0,0,1,2.19,13.37,60.15,60.15,0,0,1-2.19,15.66,32.29,32.29,0,0,1-9.11,14.85q-6.93,6.75-19.71,11t-33.78,4.26H465.34q-16.24,0-26.75-3.27t-16.94-9.21a37.92,37.92,0,0,1-9.71-14.46,91.68,91.68,0,0,1-4.85-19h47.35a21.44,21.44,0,0,0,2.48,4,10.11,10.11,0,0,0,3.56,2.68,20.58,20.58,0,0,0,6,1.58,77.09,77.09,0,0,0,9.7.49h48.94q12.09,0,19.91-.09a82.09,82.09,0,0,0,12.38-.9q4.56-.8,6.24-2.38A5.64,5.64,0,0,0,565.38,117.71Z"/><path class="cls-2" d="M727.65,111.17,713.58,113q-7.73,1-14.86,2.48a62.34,62.34,0,0,0-12.48,3.86q-5.36,2.38-6.74,6.14H793.62v37.25H612V160.1q0-17.23,5.74-29.71a68.16,68.16,0,0,1,15.06-21.3,78.88,78.88,0,0,1,21.3-14.37,162.67,162.67,0,0,1,24.36-9,229.25,229.25,0,0,1,24.37-5.45q12-2,21.3-3.56t15.06-3.17q5.75-1.59,5.74-4.56a7.66,7.66,0,0,0-1.09-4.36c-.72-1-2.35-1.81-4.85-2.28a77,77,0,0,0-11-.89q-7.23-.19-19.31-.2H685.44a79.47,79.47,0,0,0-9.8.5,19,19,0,0,0-6.34,1.78,9.31,9.31,0,0,0-3.76,3.37,15.27,15.27,0,0,0-1.89,5H616.3a98.72,98.72,0,0,1,4.86-20.2,38.88,38.88,0,0,1,9.71-15.06q6.43-6.15,16.94-9.41T674.55,24h53.1A130.73,130.73,0,0,1,752,26a73.47,73.47,0,0,1,17.44,5.35,41.6,41.6,0,0,1,11.69,7.92,36.25,36.25,0,0,1,7,9.61,37.76,37.76,0,0,1,3.37,10.5,65,65,0,0,1,.89,10.41A36.52,36.52,0,0,1,790.25,82q-2.19,6.15-9.11,11.7t-19.71,10.1Q748.65,108.4,727.65,111.17Z"/><path class="cls-2" d="M953.3,130.39v32.29H905.75V130.39H798V96.31L905.75,24H953.3V95.72h23.57v34.67ZM905.75,95.72V58.86l-52.9,36.86Z"/><path class="cls-1" d="M1004.73,6.44V182.16H94.3a87.86,87.86,0,0,1,0-175.72h910.43M1011.17,0H94.3A94.3,94.3,0,0,0,0,94.3H0a94.3,94.3,0,0,0,94.3,94.3h916.87V0Z"/><path class="cls-3" d="M1029.91,8.34h432.73a86,86,0,0,1,86,86v0a86,86,0,0,1-86,86H1029.91a0,0,0,0,1,0,0V8.34A0,0,0,0,1,1029.91,8.34Z"/><text class="cls-4" transform="translate(1049.46 123.58)">Barmenia</text><circle class="cls-2" cx="110.24" cy="106.27" r="56.41"/><path class="cls-1" d="M114.79,51.85C115,43.61,117.38,36.15,123,30a18.23,18.23,0,0,1,8.72-5.59,13.13,13.13,0,0,1,13.65,3.79,20.31,20.31,0,0,1,5.36,11.1,32.58,32.58,0,0,1-6.38,26.22,19.87,19.87,0,0,1-8.6,6.65c-6.15,2.42-12.47.51-16.48-5a24.41,24.41,0,0,1-4.4-12.59c-.05-.55-.09-1.1-.11-1.65C114.77,52.57,114.79,52.21,114.79,51.85Z"/><path class="cls-1" d="M105.76,51.67c0,5.13-1,9.83-3.57,14.09a14.58,14.58,0,0,1-8.8,6.95c-4.35,1.15-8.31.09-12-2.33a25.49,25.49,0,0,1-9.27-11.55,32.19,32.19,0,0,1-1.69-22.38,19.88,19.88,0,0,1,4-7.57,13.62,13.62,0,0,1,17.35-3.32,23.43,23.43,0,0,1,9.38,9.37A33.75,33.75,0,0,1,105.76,51.67Z"/><path class="cls-1" d="M149.3,87.81a28.27,28.27,0,0,1,12-22,17.51,17.51,0,0,1,8.4-3.31,13.68,13.68,0,0,1,14.36,8.09,21.82,21.82,0,0,1,1.68,12.58,28.22,28.22,0,0,1-11.06,19.22,17.8,17.8,0,0,1-9.47,3.83A13.72,13.72,0,0,1,151,97.53,24,24,0,0,1,149.3,87.81Z"/><path class="cls-1" d="M34.58,79.47A19.07,19.07,0,0,1,37.34,69c3.54-5.78,10.16-8,16.79-5.77A23.15,23.15,0,0,1,65.52,72a28.35,28.35,0,0,1,5.65,18.46,18.27,18.27,0,0,1-3.42,10.21,13.69,13.69,0,0,1-15.41,5,23.17,23.17,0,0,1-11.57-8.24A29.06,29.06,0,0,1,34.58,79.47Z"/><path class="cls-1" d="M160.64,135.11v.3a22,22,0,0,1-.46,5v.13a.55.55,0,0,0-.05.17,23.73,23.73,0,0,1-1.34,4.22,3.52,3.52,0,0,1-.15.33c-.08.23-.13.43-.21.66a1.11,1.11,0,0,1-.25.33c-.13.28-.28.53-.41.81.08,0,.13,0,.21,0-.66.91-1.32,1.87-2,2.76A20,20,0,0,1,139.45,158a36.3,36.3,0,0,1-9-1.25l-.84-.23-.18,0c-4.08-1-8.15-2.21-12.26-3.15a.18.18,0,0,1-.12,0,.59.59,0,0,1-.23-.05,33.4,33.4,0,0,0-6.1-.78,3.29,3.29,0,0,0,1.07-.36c7.9-4.44,14.32-10.33,18.1-18.71,2.34-5.12,3.88-10.45,2.69-16.19-1-5-4.29-8.38-8.53-9-5-.66-8.71,1.37-11.42,6.06-.53.89-1.5,2.09-2.31,2.11s-1.8-1.17-2.29-2c-1.92-3.43-4.54-5.79-8.58-6.15-7-.61-11.82,4.5-11.88,12.34.41,14.49,10.23,25.61,21.68,31.83a.85.85,0,0,0,.28.1,34.81,34.81,0,0,0-5.76.76.79.79,0,0,1-.25.05.18.18,0,0,1-.13,0c-4.11.94-8.17,2.11-12.26,3.15l-.18,0-.84.23a36.13,36.13,0,0,1-9,1.25,20,20,0,0,1-16.55-8.13c-.68-.89-1.32-1.85-2-2.76l.22,0-.43-.81c-.07-.1-.2-.21-.23-.33s-.15-.43-.22-.66a2,2,0,0,1-.16-.33,24.49,24.49,0,0,1-1.32-4.22l-.07-.17v-.13a23.79,23.79,0,0,1-.46-5v-.1c0-.07,0-.15,0-.2,0-.58.05-1.17.1-1.73a21.19,21.19,0,0,1,.28-2.28,33.48,33.48,0,0,1,4.08-11,38.2,38.2,0,0,1,5.74-7.61c1.35-1.43,2.77-2.75,4.24-4.07.46-.4.91-.83,1.37-1.26A76.85,76.85,0,0,0,81.82,100c.89-1.19,1.75-2.38,2.59-3.6,1.37-2,2.64-4,3.94-6,.76-1.17,1.49-2.33,2.31-3.48a1.73,1.73,0,0,1,.15-.2A27.92,27.92,0,0,1,99.54,78l.26-.15a20.71,20.71,0,0,1,3.45-1.67,18.15,18.15,0,0,1,14,0,20.44,20.44,0,0,1,3.46,1.67,2.75,2.75,0,0,1,.25.15,27.7,27.7,0,0,1,8.76,8.71,1.73,1.73,0,0,1,.15.2q1.18,1.72,2.28,3.48c1.3,2,2.59,4,3.94,6,.84,1.22,1.7,2.41,2.59,3.6a77.18,77.18,0,0,0,6.17,7.14c.43.43.89.86,1.37,1.26,1.44,1.32,2.87,2.64,4.24,4.07a37,37,0,0,1,5.71,7.61,33.54,33.54,0,0,1,4.11,11,21.2,21.2,0,0,1,.25,2.28A16.37,16.37,0,0,1,160.64,135.11Z"/></g></g></svg>